<svg xmlns="http://www.w3.org/2000/svg" width="578" height="210" viewBox="0 0 578 210">
  <g id="グループ_9" data-name="グループ 9" transform="translate(1795 5)">
    <rect id="長方形_2" data-name="長方形 2" width="3" height="3" transform="translate(-1795 -5)" fill="#ff6920"/>
    <rect id="長方形_2-2" data-name="長方形 2" width="3" height="3" transform="translate(-1772 -5)" fill="#ff6920"/>
    <rect id="長方形_2-3" data-name="長方形 2" width="3" height="3" transform="translate(-1749 -5)" fill="#ff6920"/>
    <rect id="長方形_2-4" data-name="長方形 2" width="3" height="3" transform="translate(-1726 -5)" fill="#ff6920"/>
    <rect id="長方形_2-5" data-name="長方形 2" width="3" height="3" transform="translate(-1703 -5)" fill="#ff6920"/>
    <rect id="長方形_2-6" data-name="長方形 2" width="3" height="3" transform="translate(-1680 -5)" fill="#ff6920"/>
    <rect id="長方形_2-7" data-name="長方形 2" width="3" height="3" transform="translate(-1657 -5)" fill="#ff6920"/>
    <rect id="長方形_2-8" data-name="長方形 2" width="3" height="3" transform="translate(-1634 -5)" fill="#ff6920"/>
    <rect id="長方形_2-9" data-name="長方形 2" width="3" height="3" transform="translate(-1611 -5)" fill="#ff6920"/>
    <rect id="長方形_2-10" data-name="長方形 2" width="3" height="3" transform="translate(-1588 -5)" fill="#ff6920"/>
    <rect id="長方形_2-11" data-name="長方形 2" width="3" height="3" transform="translate(-1565 -5)" fill="#ff6920"/>
    <rect id="長方形_2-12" data-name="長方形 2" width="3" height="3" transform="translate(-1542 -5)" fill="#ff6920"/>
    <rect id="長方形_2-13" data-name="長方形 2" width="3" height="3" transform="translate(-1519 -5)" fill="#ff6920"/>
    <rect id="長方形_2-14" data-name="長方形 2" width="3" height="3" transform="translate(-1496 -5)" fill="#ff6920"/>
    <rect id="長方形_2-15" data-name="長方形 2" width="3" height="3" transform="translate(-1473 -5)" fill="#ff6920"/>
    <rect id="長方形_2-16" data-name="長方形 2" width="3" height="3" transform="translate(-1450 -5)" fill="#ff6920"/>
    <rect id="長方形_2-17" data-name="長方形 2" width="3" height="3" transform="translate(-1427 -5)" fill="#ff6920"/>
    <rect id="長方形_2-18" data-name="長方形 2" width="3" height="3" transform="translate(-1404 -5)" fill="#ff6920"/>
    <rect id="長方形_2-19" data-name="長方形 2" width="3" height="3" transform="translate(-1381 -5)" fill="#ff6920"/>
    <rect id="長方形_2-20" data-name="長方形 2" width="3" height="3" transform="translate(-1358 -5)" fill="#ff6920"/>
    <rect id="長方形_2-21" data-name="長方形 2" width="3" height="3" transform="translate(-1335 -5)" fill="#ff6920"/>
    <rect id="長方形_2-22" data-name="長方形 2" width="3" height="3" transform="translate(-1312 -5)" fill="#ff6920"/>
    <rect id="長方形_2-23" data-name="長方形 2" width="3" height="3" transform="translate(-1289 -5)" fill="#ff6920"/>
    <rect id="長方形_2-24" data-name="長方形 2" width="3" height="3" transform="translate(-1266 -5)" fill="#ff6920"/>
    <rect id="長方形_2-25" data-name="長方形 2" width="3" height="3" transform="translate(-1243 -5)" fill="#ff6920"/>
    <rect id="長方形_2-26" data-name="長方形 2" width="3" height="3" transform="translate(-1220 -5)" fill="#ff6920"/>
    <rect id="長方形_2-27" data-name="長方形 2" width="3" height="3" transform="translate(-1795 18)" fill="#ff6920"/>
    <rect id="長方形_2-28" data-name="長方形 2" width="3" height="3" transform="translate(-1772 18)" fill="#ff6920"/>
    <rect id="長方形_2-29" data-name="長方形 2" width="3" height="3" transform="translate(-1749 18)" fill="#ff6920"/>
    <rect id="長方形_2-30" data-name="長方形 2" width="3" height="3" transform="translate(-1726 18)" fill="#ff6920"/>
    <rect id="長方形_2-31" data-name="長方形 2" width="3" height="3" transform="translate(-1703 18)" fill="#ff6920"/>
    <rect id="長方形_2-32" data-name="長方形 2" width="3" height="3" transform="translate(-1680 18)" fill="#ff6920"/>
    <rect id="長方形_2-33" data-name="長方形 2" width="3" height="3" transform="translate(-1657 18)" fill="#ff6920"/>
    <rect id="長方形_2-34" data-name="長方形 2" width="3" height="3" transform="translate(-1634 18)" fill="#ff6920"/>
    <rect id="長方形_2-35" data-name="長方形 2" width="3" height="3" transform="translate(-1611 18)" fill="#ff6920"/>
    <rect id="長方形_2-36" data-name="長方形 2" width="3" height="3" transform="translate(-1588 18)" fill="#ff6920"/>
    <rect id="長方形_2-37" data-name="長方形 2" width="3" height="3" transform="translate(-1565 18)" fill="#ff6920"/>
    <rect id="長方形_2-38" data-name="長方形 2" width="3" height="3" transform="translate(-1542 18)" fill="#ff6920"/>
    <rect id="長方形_2-39" data-name="長方形 2" width="3" height="3" transform="translate(-1519 18)" fill="#ff6920"/>
    <rect id="長方形_2-40" data-name="長方形 2" width="3" height="3" transform="translate(-1496 18)" fill="#ff6920"/>
    <rect id="長方形_2-41" data-name="長方形 2" width="3" height="3" transform="translate(-1473 18)" fill="#ff6920"/>
    <rect id="長方形_2-42" data-name="長方形 2" width="3" height="3" transform="translate(-1450 18)" fill="#ff6920"/>
    <rect id="長方形_2-43" data-name="長方形 2" width="3" height="3" transform="translate(-1427 18)" fill="#ff6920"/>
    <rect id="長方形_2-44" data-name="長方形 2" width="3" height="3" transform="translate(-1404 18)" fill="#ff6920"/>
    <rect id="長方形_2-45" data-name="長方形 2" width="3" height="3" transform="translate(-1381 18)" fill="#ff6920"/>
    <rect id="長方形_2-46" data-name="長方形 2" width="3" height="3" transform="translate(-1358 18)" fill="#ff6920"/>
    <rect id="長方形_2-47" data-name="長方形 2" width="3" height="3" transform="translate(-1335 18)" fill="#ff6920"/>
    <rect id="長方形_2-48" data-name="長方形 2" width="3" height="3" transform="translate(-1312 18)" fill="#ff6920"/>
    <rect id="長方形_2-49" data-name="長方形 2" width="3" height="3" transform="translate(-1289 18)" fill="#ff6920"/>
    <rect id="長方形_2-50" data-name="長方形 2" width="3" height="3" transform="translate(-1266 18)" fill="#ff6920"/>
    <rect id="長方形_2-51" data-name="長方形 2" width="3" height="3" transform="translate(-1243 18)" fill="#ff6920"/>
    <rect id="長方形_2-52" data-name="長方形 2" width="3" height="3" transform="translate(-1220 18)" fill="#ff6920"/>
    <rect id="長方形_2-53" data-name="長方形 2" width="3" height="3" transform="translate(-1795 41)" fill="#ff6920"/>
    <rect id="長方形_2-54" data-name="長方形 2" width="3" height="3" transform="translate(-1772 41)" fill="#ff6920"/>
    <rect id="長方形_2-55" data-name="長方形 2" width="3" height="3" transform="translate(-1749 41)" fill="#ff6920"/>
    <rect id="長方形_2-56" data-name="長方形 2" width="3" height="3" transform="translate(-1726 41)" fill="#ff6920"/>
    <rect id="長方形_2-57" data-name="長方形 2" width="3" height="3" transform="translate(-1703 41)" fill="#ff6920"/>
    <rect id="長方形_2-58" data-name="長方形 2" width="3" height="3" transform="translate(-1680 41)" fill="#ff6920"/>
    <rect id="長方形_2-59" data-name="長方形 2" width="3" height="3" transform="translate(-1657 41)" fill="#ff6920"/>
    <rect id="長方形_2-60" data-name="長方形 2" width="3" height="3" transform="translate(-1634 41)" fill="#ff6920"/>
    <rect id="長方形_2-61" data-name="長方形 2" width="3" height="3" transform="translate(-1611 41)" fill="#ff6920"/>
    <rect id="長方形_2-62" data-name="長方形 2" width="3" height="3" transform="translate(-1588 41)" fill="#ff6920"/>
    <rect id="長方形_2-63" data-name="長方形 2" width="3" height="3" transform="translate(-1565 41)" fill="#ff6920"/>
    <rect id="長方形_2-64" data-name="長方形 2" width="3" height="3" transform="translate(-1542 41)" fill="#ff6920"/>
    <rect id="長方形_2-65" data-name="長方形 2" width="3" height="3" transform="translate(-1519 41)" fill="#ff6920"/>
    <rect id="長方形_2-66" data-name="長方形 2" width="3" height="3" transform="translate(-1496 41)" fill="#ff6920"/>
    <rect id="長方形_2-67" data-name="長方形 2" width="3" height="3" transform="translate(-1473 41)" fill="#ff6920"/>
    <rect id="長方形_2-68" data-name="長方形 2" width="3" height="3" transform="translate(-1450 41)" fill="#ff6920"/>
    <rect id="長方形_2-69" data-name="長方形 2" width="3" height="3" transform="translate(-1427 41)" fill="#ff6920"/>
    <rect id="長方形_2-70" data-name="長方形 2" width="3" height="3" transform="translate(-1404 41)" fill="#ff6920"/>
    <rect id="長方形_2-71" data-name="長方形 2" width="3" height="3" transform="translate(-1381 41)" fill="#ff6920"/>
    <rect id="長方形_2-72" data-name="長方形 2" width="3" height="3" transform="translate(-1358 41)" fill="#ff6920"/>
    <rect id="長方形_2-73" data-name="長方形 2" width="3" height="3" transform="translate(-1335 41)" fill="#ff6920"/>
    <rect id="長方形_2-74" data-name="長方形 2" width="3" height="3" transform="translate(-1312 41)" fill="#ff6920"/>
    <rect id="長方形_2-75" data-name="長方形 2" width="3" height="3" transform="translate(-1289 41)" fill="#ff6920"/>
    <rect id="長方形_2-76" data-name="長方形 2" width="3" height="3" transform="translate(-1266 41)" fill="#ff6920"/>
    <rect id="長方形_2-77" data-name="長方形 2" width="3" height="3" transform="translate(-1243 41)" fill="#ff6920"/>
    <rect id="長方形_2-78" data-name="長方形 2" width="3" height="3" transform="translate(-1220 41)" fill="#ff6920"/>
    <rect id="長方形_2-79" data-name="長方形 2" width="3" height="3" transform="translate(-1795 64)" fill="#ff6920"/>
    <rect id="長方形_2-80" data-name="長方形 2" width="3" height="3" transform="translate(-1772 64)" fill="#ff6920"/>
    <rect id="長方形_2-81" data-name="長方形 2" width="3" height="3" transform="translate(-1749 64)" fill="#ff6920"/>
    <rect id="長方形_2-82" data-name="長方形 2" width="3" height="3" transform="translate(-1726 64)" fill="#ff6920"/>
    <rect id="長方形_2-83" data-name="長方形 2" width="3" height="3" transform="translate(-1703 64)" fill="#ff6920"/>
    <rect id="長方形_2-84" data-name="長方形 2" width="3" height="3" transform="translate(-1680 64)" fill="#ff6920"/>
    <rect id="長方形_2-85" data-name="長方形 2" width="3" height="3" transform="translate(-1657 64)" fill="#ff6920"/>
    <rect id="長方形_2-86" data-name="長方形 2" width="3" height="3" transform="translate(-1634 64)" fill="#ff6920"/>
    <rect id="長方形_2-87" data-name="長方形 2" width="3" height="3" transform="translate(-1611 64)" fill="#ff6920"/>
    <rect id="長方形_2-88" data-name="長方形 2" width="3" height="3" transform="translate(-1588 64)" fill="#ff6920"/>
    <rect id="長方形_2-89" data-name="長方形 2" width="3" height="3" transform="translate(-1565 64)" fill="#ff6920"/>
    <rect id="長方形_2-90" data-name="長方形 2" width="3" height="3" transform="translate(-1542 64)" fill="#ff6920"/>
    <rect id="長方形_2-91" data-name="長方形 2" width="3" height="3" transform="translate(-1519 64)" fill="#ff6920"/>
    <rect id="長方形_2-92" data-name="長方形 2" width="3" height="3" transform="translate(-1496 64)" fill="#ff6920"/>
    <rect id="長方形_2-93" data-name="長方形 2" width="3" height="3" transform="translate(-1473 64)" fill="#ff6920"/>
    <rect id="長方形_2-94" data-name="長方形 2" width="3" height="3" transform="translate(-1450 64)" fill="#ff6920"/>
    <rect id="長方形_2-95" data-name="長方形 2" width="3" height="3" transform="translate(-1427 64)" fill="#ff6920"/>
    <rect id="長方形_2-96" data-name="長方形 2" width="3" height="3" transform="translate(-1404 64)" fill="#ff6920"/>
    <rect id="長方形_2-97" data-name="長方形 2" width="3" height="3" transform="translate(-1381 64)" fill="#ff6920"/>
    <rect id="長方形_2-98" data-name="長方形 2" width="3" height="3" transform="translate(-1358 64)" fill="#ff6920"/>
    <rect id="長方形_2-99" data-name="長方形 2" width="3" height="3" transform="translate(-1335 64)" fill="#ff6920"/>
    <rect id="長方形_2-100" data-name="長方形 2" width="3" height="3" transform="translate(-1312 64)" fill="#ff6920"/>
    <rect id="長方形_2-101" data-name="長方形 2" width="3" height="3" transform="translate(-1289 64)" fill="#ff6920"/>
    <rect id="長方形_2-102" data-name="長方形 2" width="3" height="3" transform="translate(-1266 64)" fill="#ff6920"/>
    <rect id="長方形_2-103" data-name="長方形 2" width="3" height="3" transform="translate(-1243 64)" fill="#ff6920"/>
    <rect id="長方形_2-104" data-name="長方形 2" width="3" height="3" transform="translate(-1220 64)" fill="#ff6920"/>
    <rect id="長方形_2-105" data-name="長方形 2" width="3" height="3" transform="translate(-1795 87)" fill="#ff6920"/>
    <rect id="長方形_2-106" data-name="長方形 2" width="3" height="3" transform="translate(-1772 87)" fill="#ff6920"/>
    <rect id="長方形_2-107" data-name="長方形 2" width="3" height="3" transform="translate(-1749 87)" fill="#ff6920"/>
    <rect id="長方形_2-108" data-name="長方形 2" width="3" height="3" transform="translate(-1726 87)" fill="#ff6920"/>
    <rect id="長方形_2-109" data-name="長方形 2" width="3" height="3" transform="translate(-1703 87)" fill="#ff6920"/>
    <rect id="長方形_2-110" data-name="長方形 2" width="3" height="3" transform="translate(-1680 87)" fill="#ff6920"/>
    <rect id="長方形_2-111" data-name="長方形 2" width="3" height="3" transform="translate(-1657 87)" fill="#ff6920"/>
    <rect id="長方形_2-112" data-name="長方形 2" width="3" height="3" transform="translate(-1634 87)" fill="#ff6920"/>
    <rect id="長方形_2-113" data-name="長方形 2" width="3" height="3" transform="translate(-1611 87)" fill="#ff6920"/>
    <rect id="長方形_2-114" data-name="長方形 2" width="3" height="3" transform="translate(-1588 87)" fill="#ff6920"/>
    <rect id="長方形_2-115" data-name="長方形 2" width="3" height="3" transform="translate(-1565 87)" fill="#ff6920"/>
    <rect id="長方形_2-116" data-name="長方形 2" width="3" height="3" transform="translate(-1542 87)" fill="#ff6920"/>
    <rect id="長方形_2-117" data-name="長方形 2" width="3" height="3" transform="translate(-1519 87)" fill="#ff6920"/>
    <rect id="長方形_2-118" data-name="長方形 2" width="3" height="3" transform="translate(-1496 87)" fill="#ff6920"/>
    <rect id="長方形_2-119" data-name="長方形 2" width="3" height="3" transform="translate(-1473 87)" fill="#ff6920"/>
    <rect id="長方形_2-120" data-name="長方形 2" width="3" height="3" transform="translate(-1450 87)" fill="#ff6920"/>
    <rect id="長方形_2-121" data-name="長方形 2" width="3" height="3" transform="translate(-1427 87)" fill="#ff6920"/>
    <rect id="長方形_2-122" data-name="長方形 2" width="3" height="3" transform="translate(-1404 87)" fill="#ff6920"/>
    <rect id="長方形_2-123" data-name="長方形 2" width="3" height="3" transform="translate(-1381 87)" fill="#ff6920"/>
    <rect id="長方形_2-124" data-name="長方形 2" width="3" height="3" transform="translate(-1358 87)" fill="#ff6920"/>
    <rect id="長方形_2-125" data-name="長方形 2" width="3" height="3" transform="translate(-1335 87)" fill="#ff6920"/>
    <rect id="長方形_2-126" data-name="長方形 2" width="3" height="3" transform="translate(-1312 87)" fill="#ff6920"/>
    <rect id="長方形_2-127" data-name="長方形 2" width="3" height="3" transform="translate(-1289 87)" fill="#ff6920"/>
    <rect id="長方形_2-128" data-name="長方形 2" width="3" height="3" transform="translate(-1266 87)" fill="#ff6920"/>
    <rect id="長方形_2-129" data-name="長方形 2" width="3" height="3" transform="translate(-1243 87)" fill="#ff6920"/>
    <rect id="長方形_2-130" data-name="長方形 2" width="3" height="3" transform="translate(-1220 87)" fill="#ff6920"/>
    <rect id="長方形_2-131" data-name="長方形 2" width="3" height="3" transform="translate(-1795 110)" fill="#ff6920"/>
    <rect id="長方形_2-132" data-name="長方形 2" width="3" height="3" transform="translate(-1772 110)" fill="#ff6920"/>
    <rect id="長方形_2-133" data-name="長方形 2" width="3" height="3" transform="translate(-1749 110)" fill="#ff6920"/>
    <rect id="長方形_2-134" data-name="長方形 2" width="3" height="3" transform="translate(-1726 110)" fill="#ff6920"/>
    <rect id="長方形_2-135" data-name="長方形 2" width="3" height="3" transform="translate(-1703 110)" fill="#ff6920"/>
    <rect id="長方形_2-136" data-name="長方形 2" width="3" height="3" transform="translate(-1680 110)" fill="#ff6920"/>
    <rect id="長方形_2-137" data-name="長方形 2" width="3" height="3" transform="translate(-1657 110)" fill="#ff6920"/>
    <rect id="長方形_2-138" data-name="長方形 2" width="3" height="3" transform="translate(-1634 110)" fill="#ff6920"/>
    <rect id="長方形_2-139" data-name="長方形 2" width="3" height="3" transform="translate(-1611 110)" fill="#ff6920"/>
    <rect id="長方形_2-140" data-name="長方形 2" width="3" height="3" transform="translate(-1588 110)" fill="#ff6920"/>
    <rect id="長方形_2-141" data-name="長方形 2" width="3" height="3" transform="translate(-1565 110)" fill="#ff6920"/>
    <rect id="長方形_2-142" data-name="長方形 2" width="3" height="3" transform="translate(-1542 110)" fill="#ff6920"/>
    <rect id="長方形_2-143" data-name="長方形 2" width="3" height="3" transform="translate(-1519 110)" fill="#ff6920"/>
    <rect id="長方形_2-144" data-name="長方形 2" width="3" height="3" transform="translate(-1496 110)" fill="#ff6920"/>
    <rect id="長方形_2-145" data-name="長方形 2" width="3" height="3" transform="translate(-1473 110)" fill="#ff6920"/>
    <rect id="長方形_2-146" data-name="長方形 2" width="3" height="3" transform="translate(-1450 110)" fill="#ff6920"/>
    <rect id="長方形_2-147" data-name="長方形 2" width="3" height="3" transform="translate(-1427 110)" fill="#ff6920"/>
    <rect id="長方形_2-148" data-name="長方形 2" width="3" height="3" transform="translate(-1404 110)" fill="#ff6920"/>
    <rect id="長方形_2-149" data-name="長方形 2" width="3" height="3" transform="translate(-1381 110)" fill="#ff6920"/>
    <rect id="長方形_2-150" data-name="長方形 2" width="3" height="3" transform="translate(-1358 110)" fill="#ff6920"/>
    <rect id="長方形_2-151" data-name="長方形 2" width="3" height="3" transform="translate(-1335 110)" fill="#ff6920"/>
    <rect id="長方形_2-152" data-name="長方形 2" width="3" height="3" transform="translate(-1312 110)" fill="#ff6920"/>
    <rect id="長方形_2-153" data-name="長方形 2" width="3" height="3" transform="translate(-1289 110)" fill="#ff6920"/>
    <rect id="長方形_2-154" data-name="長方形 2" width="3" height="3" transform="translate(-1266 110)" fill="#ff6920"/>
    <rect id="長方形_2-155" data-name="長方形 2" width="3" height="3" transform="translate(-1243 110)" fill="#ff6920"/>
    <rect id="長方形_2-156" data-name="長方形 2" width="3" height="3" transform="translate(-1220 110)" fill="#ff6920"/>
    <rect id="長方形_2-157" data-name="長方形 2" width="3" height="3" transform="translate(-1795 133)" fill="#ff6920"/>
    <rect id="長方形_2-158" data-name="長方形 2" width="3" height="3" transform="translate(-1772 133)" fill="#ff6920"/>
    <rect id="長方形_2-159" data-name="長方形 2" width="3" height="3" transform="translate(-1749 133)" fill="#ff6920"/>
    <rect id="長方形_2-160" data-name="長方形 2" width="3" height="3" transform="translate(-1726 133)" fill="#ff6920"/>
    <rect id="長方形_2-161" data-name="長方形 2" width="3" height="3" transform="translate(-1703 133)" fill="#ff6920"/>
    <rect id="長方形_2-162" data-name="長方形 2" width="3" height="3" transform="translate(-1680 133)" fill="#ff6920"/>
    <rect id="長方形_2-163" data-name="長方形 2" width="3" height="3" transform="translate(-1657 133)" fill="#ff6920"/>
    <rect id="長方形_2-164" data-name="長方形 2" width="3" height="3" transform="translate(-1634 133)" fill="#ff6920"/>
    <rect id="長方形_2-165" data-name="長方形 2" width="3" height="3" transform="translate(-1611 133)" fill="#ff6920"/>
    <rect id="長方形_2-166" data-name="長方形 2" width="3" height="3" transform="translate(-1588 133)" fill="#ff6920"/>
    <rect id="長方形_2-167" data-name="長方形 2" width="3" height="3" transform="translate(-1565 133)" fill="#ff6920"/>
    <rect id="長方形_2-168" data-name="長方形 2" width="3" height="3" transform="translate(-1542 133)" fill="#ff6920"/>
    <rect id="長方形_2-169" data-name="長方形 2" width="3" height="3" transform="translate(-1519 133)" fill="#ff6920"/>
    <rect id="長方形_2-170" data-name="長方形 2" width="3" height="3" transform="translate(-1496 133)" fill="#ff6920"/>
    <rect id="長方形_2-171" data-name="長方形 2" width="3" height="3" transform="translate(-1473 133)" fill="#ff6920"/>
    <rect id="長方形_2-172" data-name="長方形 2" width="3" height="3" transform="translate(-1450 133)" fill="#ff6920"/>
    <rect id="長方形_2-173" data-name="長方形 2" width="3" height="3" transform="translate(-1427 133)" fill="#ff6920"/>
    <rect id="長方形_2-174" data-name="長方形 2" width="3" height="3" transform="translate(-1404 133)" fill="#ff6920"/>
    <rect id="長方形_2-175" data-name="長方形 2" width="3" height="3" transform="translate(-1381 133)" fill="#ff6920"/>
    <rect id="長方形_2-176" data-name="長方形 2" width="3" height="3" transform="translate(-1358 133)" fill="#ff6920"/>
    <rect id="長方形_2-177" data-name="長方形 2" width="3" height="3" transform="translate(-1335 133)" fill="#ff6920"/>
    <rect id="長方形_2-178" data-name="長方形 2" width="3" height="3" transform="translate(-1312 133)" fill="#ff6920"/>
    <rect id="長方形_2-179" data-name="長方形 2" width="3" height="3" transform="translate(-1289 133)" fill="#ff6920"/>
    <rect id="長方形_2-180" data-name="長方形 2" width="3" height="3" transform="translate(-1266 133)" fill="#ff6920"/>
    <rect id="長方形_2-181" data-name="長方形 2" width="3" height="3" transform="translate(-1243 133)" fill="#ff6920"/>
    <rect id="長方形_2-182" data-name="長方形 2" width="3" height="3" transform="translate(-1220 133)" fill="#ff6920"/>
    <rect id="長方形_2-183" data-name="長方形 2" width="3" height="3" transform="translate(-1795 156)" fill="#ff6920"/>
    <rect id="長方形_2-184" data-name="長方形 2" width="3" height="3" transform="translate(-1772 156)" fill="#ff6920"/>
    <rect id="長方形_2-185" data-name="長方形 2" width="3" height="3" transform="translate(-1749 156)" fill="#ff6920"/>
    <rect id="長方形_2-186" data-name="長方形 2" width="3" height="3" transform="translate(-1726 156)" fill="#ff6920"/>
    <rect id="長方形_2-187" data-name="長方形 2" width="3" height="3" transform="translate(-1703 156)" fill="#ff6920"/>
    <rect id="長方形_2-188" data-name="長方形 2" width="3" height="3" transform="translate(-1680 156)" fill="#ff6920"/>
    <rect id="長方形_2-189" data-name="長方形 2" width="3" height="3" transform="translate(-1657 156)" fill="#ff6920"/>
    <rect id="長方形_2-190" data-name="長方形 2" width="3" height="3" transform="translate(-1634 156)" fill="#ff6920"/>
    <rect id="長方形_2-191" data-name="長方形 2" width="3" height="3" transform="translate(-1611 156)" fill="#ff6920"/>
    <rect id="長方形_2-192" data-name="長方形 2" width="3" height="3" transform="translate(-1588 156)" fill="#ff6920"/>
    <rect id="長方形_2-193" data-name="長方形 2" width="3" height="3" transform="translate(-1565 156)" fill="#ff6920"/>
    <rect id="長方形_2-194" data-name="長方形 2" width="3" height="3" transform="translate(-1542 156)" fill="#ff6920"/>
    <rect id="長方形_2-195" data-name="長方形 2" width="3" height="3" transform="translate(-1519 156)" fill="#ff6920"/>
    <rect id="長方形_2-196" data-name="長方形 2" width="3" height="3" transform="translate(-1496 156)" fill="#ff6920"/>
    <rect id="長方形_2-197" data-name="長方形 2" width="3" height="3" transform="translate(-1473 156)" fill="#ff6920"/>
    <rect id="長方形_2-198" data-name="長方形 2" width="3" height="3" transform="translate(-1450 156)" fill="#ff6920"/>
    <rect id="長方形_2-199" data-name="長方形 2" width="3" height="3" transform="translate(-1427 156)" fill="#ff6920"/>
    <rect id="長方形_2-200" data-name="長方形 2" width="3" height="3" transform="translate(-1404 156)" fill="#ff6920"/>
    <rect id="長方形_2-201" data-name="長方形 2" width="3" height="3" transform="translate(-1381 156)" fill="#ff6920"/>
    <rect id="長方形_2-202" data-name="長方形 2" width="3" height="3" transform="translate(-1358 156)" fill="#ff6920"/>
    <rect id="長方形_2-203" data-name="長方形 2" width="3" height="3" transform="translate(-1335 156)" fill="#ff6920"/>
    <rect id="長方形_2-204" data-name="長方形 2" width="3" height="3" transform="translate(-1312 156)" fill="#ff6920"/>
    <rect id="長方形_2-205" data-name="長方形 2" width="3" height="3" transform="translate(-1289 156)" fill="#ff6920"/>
    <rect id="長方形_2-206" data-name="長方形 2" width="3" height="3" transform="translate(-1266 156)" fill="#ff6920"/>
    <rect id="長方形_2-207" data-name="長方形 2" width="3" height="3" transform="translate(-1243 156)" fill="#ff6920"/>
    <rect id="長方形_2-208" data-name="長方形 2" width="3" height="3" transform="translate(-1220 156)" fill="#ff6920"/>
    <rect id="長方形_2-209" data-name="長方形 2" width="3" height="3" transform="translate(-1795 179)" fill="#ff6920"/>
    <rect id="長方形_2-210" data-name="長方形 2" width="3" height="3" transform="translate(-1772 179)" fill="#ff6920"/>
    <rect id="長方形_2-211" data-name="長方形 2" width="3" height="3" transform="translate(-1749 179)" fill="#ff6920"/>
    <rect id="長方形_2-212" data-name="長方形 2" width="3" height="3" transform="translate(-1726 179)" fill="#ff6920"/>
    <rect id="長方形_2-213" data-name="長方形 2" width="3" height="3" transform="translate(-1703 179)" fill="#ff6920"/>
    <rect id="長方形_2-214" data-name="長方形 2" width="3" height="3" transform="translate(-1680 179)" fill="#ff6920"/>
    <rect id="長方形_2-215" data-name="長方形 2" width="3" height="3" transform="translate(-1657 179)" fill="#ff6920"/>
    <rect id="長方形_2-216" data-name="長方形 2" width="3" height="3" transform="translate(-1634 179)" fill="#ff6920"/>
    <rect id="長方形_2-217" data-name="長方形 2" width="3" height="3" transform="translate(-1611 179)" fill="#ff6920"/>
    <rect id="長方形_2-218" data-name="長方形 2" width="3" height="3" transform="translate(-1588 179)" fill="#ff6920"/>
    <rect id="長方形_2-219" data-name="長方形 2" width="3" height="3" transform="translate(-1565 179)" fill="#ff6920"/>
    <rect id="長方形_2-220" data-name="長方形 2" width="3" height="3" transform="translate(-1542 179)" fill="#ff6920"/>
    <rect id="長方形_2-221" data-name="長方形 2" width="3" height="3" transform="translate(-1519 179)" fill="#ff6920"/>
    <rect id="長方形_2-222" data-name="長方形 2" width="3" height="3" transform="translate(-1496 179)" fill="#ff6920"/>
    <rect id="長方形_2-223" data-name="長方形 2" width="3" height="3" transform="translate(-1473 179)" fill="#ff6920"/>
    <rect id="長方形_2-224" data-name="長方形 2" width="3" height="3" transform="translate(-1450 179)" fill="#ff6920"/>
    <rect id="長方形_2-225" data-name="長方形 2" width="3" height="3" transform="translate(-1427 179)" fill="#ff6920"/>
    <rect id="長方形_2-226" data-name="長方形 2" width="3" height="3" transform="translate(-1404 179)" fill="#ff6920"/>
    <rect id="長方形_2-227" data-name="長方形 2" width="3" height="3" transform="translate(-1381 179)" fill="#ff6920"/>
    <rect id="長方形_2-228" data-name="長方形 2" width="3" height="3" transform="translate(-1358 179)" fill="#ff6920"/>
    <rect id="長方形_2-229" data-name="長方形 2" width="3" height="3" transform="translate(-1335 179)" fill="#ff6920"/>
    <rect id="長方形_2-230" data-name="長方形 2" width="3" height="3" transform="translate(-1312 179)" fill="#ff6920"/>
    <rect id="長方形_2-231" data-name="長方形 2" width="3" height="3" transform="translate(-1289 179)" fill="#ff6920"/>
    <rect id="長方形_2-232" data-name="長方形 2" width="3" height="3" transform="translate(-1266 179)" fill="#ff6920"/>
    <rect id="長方形_2-233" data-name="長方形 2" width="3" height="3" transform="translate(-1243 179)" fill="#ff6920"/>
    <rect id="長方形_2-234" data-name="長方形 2" width="3" height="3" transform="translate(-1220 179)" fill="#ff6920"/>
    <rect id="長方形_2-235" data-name="長方形 2" width="3" height="3" transform="translate(-1795 202)" fill="#ff6920"/>
    <rect id="長方形_2-236" data-name="長方形 2" width="3" height="3" transform="translate(-1772 202)" fill="#ff6920"/>
    <rect id="長方形_2-237" data-name="長方形 2" width="3" height="3" transform="translate(-1749 202)" fill="#ff6920"/>
    <rect id="長方形_2-238" data-name="長方形 2" width="3" height="3" transform="translate(-1726 202)" fill="#ff6920"/>
    <rect id="長方形_2-239" data-name="長方形 2" width="3" height="3" transform="translate(-1703 202)" fill="#ff6920"/>
    <rect id="長方形_2-240" data-name="長方形 2" width="3" height="3" transform="translate(-1680 202)" fill="#ff6920"/>
    <rect id="長方形_2-241" data-name="長方形 2" width="3" height="3" transform="translate(-1657 202)" fill="#ff6920"/>
    <rect id="長方形_2-242" data-name="長方形 2" width="3" height="3" transform="translate(-1634 202)" fill="#ff6920"/>
    <rect id="長方形_2-243" data-name="長方形 2" width="3" height="3" transform="translate(-1611 202)" fill="#ff6920"/>
    <rect id="長方形_2-244" data-name="長方形 2" width="3" height="3" transform="translate(-1588 202)" fill="#ff6920"/>
    <rect id="長方形_2-245" data-name="長方形 2" width="3" height="3" transform="translate(-1565 202)" fill="#ff6920"/>
    <rect id="長方形_2-246" data-name="長方形 2" width="3" height="3" transform="translate(-1542 202)" fill="#ff6920"/>
    <rect id="長方形_2-247" data-name="長方形 2" width="3" height="3" transform="translate(-1519 202)" fill="#ff6920"/>
    <rect id="長方形_2-248" data-name="長方形 2" width="3" height="3" transform="translate(-1496 202)" fill="#ff6920"/>
    <rect id="長方形_2-249" data-name="長方形 2" width="3" height="3" transform="translate(-1473 202)" fill="#ff6920"/>
    <rect id="長方形_2-250" data-name="長方形 2" width="3" height="3" transform="translate(-1450 202)" fill="#ff6920"/>
    <rect id="長方形_2-251" data-name="長方形 2" width="3" height="3" transform="translate(-1427 202)" fill="#ff6920"/>
    <rect id="長方形_2-252" data-name="長方形 2" width="3" height="3" transform="translate(-1404 202)" fill="#ff6920"/>
    <rect id="長方形_2-253" data-name="長方形 2" width="3" height="3" transform="translate(-1381 202)" fill="#ff6920"/>
    <rect id="長方形_2-254" data-name="長方形 2" width="3" height="3" transform="translate(-1358 202)" fill="#ff6920"/>
    <rect id="長方形_2-255" data-name="長方形 2" width="3" height="3" transform="translate(-1335 202)" fill="#ff6920"/>
    <rect id="長方形_2-256" data-name="長方形 2" width="3" height="3" transform="translate(-1312 202)" fill="#ff6920"/>
    <rect id="長方形_2-257" data-name="長方形 2" width="3" height="3" transform="translate(-1289 202)" fill="#ff6920"/>
    <rect id="長方形_2-258" data-name="長方形 2" width="3" height="3" transform="translate(-1266 202)" fill="#ff6920"/>
    <rect id="長方形_2-259" data-name="長方形 2" width="3" height="3" transform="translate(-1243 202)" fill="#ff6920"/>
    <rect id="長方形_2-260" data-name="長方形 2" width="3" height="3" transform="translate(-1220 202)" fill="#ff6920"/>
  </g>
</svg>
