<svg id="グループ_3549" data-name="グループ 3549" xmlns="http://www.w3.org/2000/svg" xmlns:xlink="http://www.w3.org/1999/xlink" width="716.66" height="105.062" viewBox="0 0 716.66 105.062">
  <defs>
    <clipPath id="clip-path">
      <rect id="長方形_934" data-name="長方形 934" width="716.66" height="105.062" fill="none"/>
    </clipPath>
  </defs>
  <g id="グループ_3548" data-name="グループ 3548" clip-path="url(#clip-path)">
    <path id="パス_1970" data-name="パス 1970" d="M0,81.478q0-1.684,2.134-1.854l7.861-.673a3.37,3.37,0,0,0,.926-.478,1.132,1.132,0,0,0,.534-.982V8.536a5.151,5.151,0,0,0-.337-2.275,2.008,2.008,0,0,0-1.123-.87,23.505,23.505,0,0,0-2.33-.477q-1.263-.2-2.443-.366T3.088,4.24a4.086,4.086,0,0,1-1.347-.366A.616.616,0,0,1,1.375,3.4a2.814,2.814,0,0,1-.083-.59.74.74,0,0,1,.365-.674,2.846,2.846,0,0,1,.87-.337,6.5,6.5,0,0,1,1.067-.14q.559-.028,1.01-.029H7.468q1.4,0,2.443.057t1.965.141c.618.055,1.207.1,1.769.14s1.16.056,1.8.056q2.3,0,4.38-.112t4.211-.225q2.134-.111,4.436-.225t5.054-.112a3.569,3.569,0,0,1,.645.084,4.163,4.163,0,0,1,.815.253,2.457,2.457,0,0,1,.674.421.773.773,0,0,1,.281.59.9.9,0,0,1-.478.87c-.318.169-.609.328-.87.477-.3,0-.814.02-1.545.056s-1.507.095-2.33.169-1.6.16-2.33.253A6.438,6.438,0,0,0,26.9,4.83a4.95,4.95,0,0,0-1.067.14,5.5,5.5,0,0,0-1.235.449,3.026,3.026,0,0,0-1.039.842,1.982,1.982,0,0,0-.421,1.264V37.959a1.191,1.191,0,0,0,1.347,1.348H57.163A1.527,1.527,0,0,0,58.089,39a1.073,1.073,0,0,0,.422-.927V8.7a3.6,3.6,0,0,0-.646-2.247,4.252,4.252,0,0,0-1.628-1.292A7.232,7.232,0,0,0,54.1,4.577a18.473,18.473,0,0,0-2.218-.14H46.831A2.119,2.119,0,0,1,45.456,3.9,1.545,1.545,0,0,1,44.81,2.7a1.071,1.071,0,0,1,.617-1.039,3.379,3.379,0,0,1,1.516-.309h3.313q2.64,0,4.549.056t3.537.14q1.629.085,3.173.141t3.509.057q1.572,0,2.836-.057t2.667-.141q1.4-.083,3.145-.14t4.267-.056h4.043a1.576,1.576,0,0,1,1.236.394,1.132,1.132,0,0,1,.337.673c0,.336-.225.637-.674.9a5.92,5.92,0,0,1-1.853.617,24.31,24.31,0,0,1-3.453.449,21.433,21.433,0,0,0-3.426.478A6.377,6.377,0,0,0,71.51,6.065,3.2,3.2,0,0,0,70.471,8.7V73a5.975,5.975,0,0,0,.73,3.285,4.222,4.222,0,0,0,1.994,1.6,10.23,10.23,0,0,0,2.948.646q1.685.141,3.649.421a10.329,10.329,0,0,1,2.134.673,1.561,1.561,0,0,1,.843,1.573,1.449,1.449,0,0,1-.646,1.347,3.149,3.149,0,0,1-1.657.393H77.322q-.956,0-2.555-.056t-3.285-.14q-1.685-.084-3.116-.14t-1.994-.057q-2.864,0-4.745.057t-3.678.14q-1.8.084-3.958.14t-5.588.056a3.212,3.212,0,0,1-1.6-.364,1.439,1.439,0,0,1-.646-1.376,2.24,2.24,0,0,1,.309-.983,1.289,1.289,0,0,1,.983-.7l7.749-.954a3.634,3.634,0,0,0,1.825-.7,3.339,3.339,0,0,0,.982-1.4,6.9,6.9,0,0,0,.421-1.994q.086-1.122.085-2.414V45.259a2.307,2.307,0,0,0-.534-1.46,1.733,1.733,0,0,0-1.432-.674H24.482a1.866,1.866,0,0,0-.982.225.909.909,0,0,0-.365.843v30.1A3.649,3.649,0,0,0,24.4,77.322a7.9,7.9,0,0,0,3.06,1.461,18.891,18.891,0,0,0,3.763.533,29.947,29.947,0,0,1,3.369.308,1.122,1.122,0,0,1,.814.731,3.779,3.779,0,0,1,.14,1.01c0,.787-.252,1.244-.757,1.376a6.139,6.139,0,0,1-1.545.2q-2.3,0-3.9-.056T26.055,82.8q-1.685-.028-3.875-.085t-5.671-.055q-1.349,0-2.583.055t-2.5.085q-1.265.029-2.583.084t-2.892.056h-4.1q-.9-.223-1.376-.393T0,81.478" fill="#282929"/>
    <path id="パス_1971" data-name="パス 1971" d="M135.762,46.607H96.9c-.413.151-.655.309-.73.478a4.464,4.464,0,0,0-.225.982,16.865,16.865,0,0,0-.2,2.191q-.084,1.685-.084,3.818a16.387,16.387,0,0,0,.505,4.1q.505,1.965,1.123,3.874a20.94,20.94,0,0,0,7.384,10.613q5.025,3.651,13.224,3.65a9.2,9.2,0,0,0,2.695-.449,21.083,21.083,0,0,0,2.92-1.151,19.3,19.3,0,0,0,2.808-1.658,18.2,18.2,0,0,0,2.358-1.964,6.049,6.049,0,0,0,1.207-1.544q.477-.87,1.208-2.162a1.633,1.633,0,0,1,.617-.366,2.094,2.094,0,0,1,.674-.139,1.443,1.443,0,0,1,1.376.645,3.218,3.218,0,0,1,.365,1.6,2.146,2.146,0,0,1-.2.758q-.2.477-.449.982a10.147,10.147,0,0,1-.561.982c-.207.319-.365.553-.478.7a23.013,23.013,0,0,1-5.39,5.643,27.335,27.335,0,0,1-7.805,3.959,20.832,20.832,0,0,1-3.453.477q-2.444.2-5.307.2a21.169,21.169,0,0,1-5.194-.674,26.6,26.6,0,0,1-5.194-1.91,28.608,28.608,0,0,1-4.689-2.863,16.544,16.544,0,0,1-3.566-3.594,31.137,31.137,0,0,1-4.464-8.423,29.881,29.881,0,0,1-1.432-9.546,31.6,31.6,0,0,1,.2-3.622,19.779,19.779,0,0,1,.674-3.341,23.9,23.9,0,0,1,1.207-3.228,27.2,27.2,0,0,1,1.8-3.285,35.369,35.369,0,0,1,4.211-5.672,26.761,26.761,0,0,1,5.222-4.436,23.992,23.992,0,0,1,13.309-3.875,36.232,36.232,0,0,1,6.653.647,17.37,17.37,0,0,1,6.655,2.836q1.01.729,2.807,2.246a39.777,39.777,0,0,1,3.538,3.4,26.318,26.318,0,0,1,3.032,3.959,7.584,7.584,0,0,1,1.292,3.987,1.647,1.647,0,0,1-.2.842.641.641,0,0,1-.59.337m-37.4-3.032h24.988q.954,0,1.151-.253a.853.853,0,0,0,.2-.533,6.439,6.439,0,0,0-.646-2.695,15.238,15.238,0,0,0-1.572-2.667,23.6,23.6,0,0,0-1.881-2.275,19.959,19.959,0,0,0-1.628-1.572,9.054,9.054,0,0,0-3.594-1.965,16.941,16.941,0,0,0-4.1-.449q-.956,0-1.769.027a15.515,15.515,0,0,0-1.6.141,10.994,10.994,0,0,0-3.313,1.011,10.594,10.594,0,0,0-2.331,1.6,17.048,17.048,0,0,0-2.358,2.526,15.776,15.776,0,0,0-1.853,3.117A8.04,8.04,0,0,0,97.3,42.9q0,.673,1.067.674" fill="#282929"/>
    <path id="パス_1972" data-name="パス 1972" d="M141.364,98.66a4.78,4.78,0,0,1,1.264-3.453,4.477,4.477,0,0,1,3.4-1.319,3.759,3.759,0,0,1,1.8.449,11.465,11.465,0,0,1,1.544.982,14.875,14.875,0,0,1,1.179.984c.318.3.533.449.646.449a4.188,4.188,0,0,0,2.863-1.237,12.182,12.182,0,0,0,2.331-2.947,18.653,18.653,0,0,0,1.572-3.538,10.331,10.331,0,0,0,.59-3.059,34.227,34.227,0,0,0-.787-7.161q-.786-3.676-1.74-7.046-2.527-9.435-4.773-18.784t-4.661-18.839a2.893,2.893,0,0,0-.14-.645q-.141-.475-.309-1.011a5.188,5.188,0,0,0-.421-.983,1.369,1.369,0,0,0-.477-.561,4.7,4.7,0,0,0-1.488-.365q-.872-.086-1.994-.084t-2.106-.085q-.982-.084-1.881-.2a1.129,1.129,0,0,1-.954-1.291.927.927,0,0,1,.561-.927,2.831,2.831,0,0,1,1.179-.253q1.234,0,2.949.057t3.453.084q1.739.028,3.313.084t2.583.056q2.976,0,5.952-.169t5.615-.169c.149,0,.422.01.814.029a2.918,2.918,0,0,1,.871.14,1,1,0,0,1,.393.394,1.289,1.289,0,0,1,.168.674c0,.187-.178.384-.533.589a2.164,2.164,0,0,1-1.1.309q-.619,0-1.46-.056t-1.292-.057q-.618,0-1.291.057t-1.292.112a3.419,3.419,0,0,0-1.487.5,1.377,1.377,0,0,0-.59,1.236,9.308,9.308,0,0,0,.28,2.218q.28,1.15.646,2.3t.758,2.218q.392,1.066.674,2.022,1.908,7.3,3.931,14.514t4.211,15.527a1.818,1.818,0,0,0,1.348-.674q.505-.9.926-1.853a11.487,11.487,0,0,0,.646-1.853q2.358-6.681,5.11-13.364t5.671-13.533a12.362,12.362,0,0,0,1.236-5.278c0-.412-.02-.833-.056-1.264a3.458,3.458,0,0,0-.309-1.179,2.12,2.12,0,0,0-.758-.87,2.63,2.63,0,0,0-1.46-.337H176.74q-.62,0-1.319-.029t-1.376-.055c-.45-.019-.834-.037-1.152-.057a2.882,2.882,0,0,1-.645-.084c-.188-.112-.281-.374-.281-.786a1.381,1.381,0,0,1,.281-.87,1.4,1.4,0,0,1,.9-.478,2.87,2.87,0,0,1,.955-.112h1.067q1.685,0,3.088.084t2.723.225q1.32.14,2.583.224t2.668.084q2.414,0,5.25-.252t4.969-.253c.149,0,.365.01.646.029a5.6,5.6,0,0,1,.814.112,2.186,2.186,0,0,1,.674.253.55.55,0,0,1,.281.5.921.921,0,0,1-.533.814,4,4,0,0,1-1.236.449,11.831,11.831,0,0,1-1.432.2c-.486.038-.842.056-1.067.056-.6.076-1.226.168-1.88.281a11.709,11.709,0,0,0-1.938.5,7.45,7.45,0,0,0-1.8.926,5.1,5.1,0,0,0-1.4,1.489q-.618.9-1.347,2.077t-1.488,2.5q-.759,1.32-1.46,2.639t-1.208,2.443q-2.808,6.064-5.615,12.353t-5.783,12.41q-1.405,2.978-2.667,5.7t-2.471,5.39q-1.209,2.669-2.415,5.391t-2.555,5.644a15.237,15.237,0,0,1-.842,1.8q-.674,1.292-1.488,2.723T156.666,97.2a17.279,17.279,0,0,1-1.039,1.572q-.843,1.234-1.741,2.386a12.047,12.047,0,0,1-1.994,2.022,8.913,8.913,0,0,1-2.442,1.375,8.585,8.585,0,0,1-3.032.506,3.621,3.621,0,0,1-2.05-.618,6.094,6.094,0,0,1-1.6-1.572,7.73,7.73,0,0,1-1.039-2.077,6.9,6.9,0,0,1-.365-2.135" fill="#282929"/>
    <path id="パス_1973" data-name="パス 1973" d="M189.865,93.831a1.547,1.547,0,0,0,.225-.31,4.212,4.212,0,0,1,.449-.588q.954-.507,1.628-.872c.449-.244.843-.44,1.179-.589a.829.829,0,0,1,.225-.168q1.011-.562,2.471-1.46a26.611,26.611,0,0,0,2.807-1.993,15,15,0,0,0,2.3-2.3,3.991,3.991,0,0,0,.954-2.5,2.035,2.035,0,0,0-.056-.422.306.306,0,0,0-.337-.252l-1.011.111a9,9,0,0,1-1.01.057q-.675,0-1.264-.057c-.393-.036-.777-.074-1.151-.111a3.517,3.517,0,0,1-.758-.281,6.291,6.291,0,0,1-.955-.562q-.477-.336-.926-.7a4.435,4.435,0,0,1-.674-.646,4.817,4.817,0,0,1-1.291-3.481,5.771,5.771,0,0,1,1.628-4.268,5.85,5.85,0,0,1,4.324-1.628,7.466,7.466,0,0,1,3.481.814,8.51,8.51,0,0,1,2.667,2.134,9.512,9.512,0,0,1,1.685,3.06,11.135,11.135,0,0,1,.59,3.594,12.815,12.815,0,0,1-1.376,6.009,11.832,11.832,0,0,1-3.959,4.379q-.9.618-1.881,1.263a12.315,12.315,0,0,1-2.274,1.152,25.173,25.173,0,0,1-2.976,1.039,10.288,10.288,0,0,1-2.7.364,3.947,3.947,0,0,1-.842-.084,3.5,3.5,0,0,1-1.179-.7" fill="#282929"/>
    <path id="パス_1974" data-name="パス 1974" d="M246.1,74.4V11.119a6.239,6.239,0,0,0-.842-3.566,4.856,4.856,0,0,0-2.106-1.741,7.732,7.732,0,0,0-2.723-.59c-.975-.036-1.881-.084-2.724-.139a7.009,7.009,0,0,1-2.1-.421,1.356,1.356,0,0,1-.843-1.405.877.877,0,0,1,.7-.926,4.9,4.9,0,0,1,1.32-.2h3.144q1.4,0,2.555.084t2.19.2c.692.075,1.4.139,2.134.2s1.544.084,2.443.084q2.75,0,4.829-.141t3.986-.308q1.908-.169,3.819-.309t4.267-.14h3.763a2.45,2.45,0,0,1,1.291.308,2.7,2.7,0,0,0,.786.365,3.577,3.577,0,0,0,.281.674,1.143,1.143,0,0,1,.056.505q0,.62-.982,1.012a13.043,13.043,0,0,1-2.246.645q-1.264.252-2.556.393a11.49,11.49,0,0,0-1.853.309q-.9.168-1.909.309a9.042,9.042,0,0,0-1.853.449,3.621,3.621,0,0,0-1.4.9,2.3,2.3,0,0,0-.561,1.656V76.031a2.136,2.136,0,0,0,.87,1.825,5.85,5.85,0,0,0,2.162.954,17.746,17.746,0,0,0,2.836.422q1.543.112,2.835.28a8.478,8.478,0,0,1,2.162.534A1.214,1.214,0,0,1,270.7,81.2c0,.412-.113.674-.337.786s-.431.206-.618.28a15.126,15.126,0,0,1-1.909.394,13.534,13.534,0,0,1-1.965.169q-2.022,0-3.706-.113t-3.257-.225q-1.574-.111-3.145-.225t-3.425-.111q-.9,0-2.5.056t-3.425.14q-1.825.084-3.622.14t-3.088.057h-4.436a1.789,1.789,0,0,1-.787-.282.951.951,0,0,1-.5-.9,1.211,1.211,0,0,1,.955-1.348q1.233-.336,2.217-.533t2.05-.393q1.066-.2,2.359-.421t3.2-.618a1.529,1.529,0,0,0,1.151-1.235,12.28,12.28,0,0,0,.2-2.415" fill="#282929"/>
    <path id="パス_1975" data-name="パス 1975" d="M276.018,23.023a1.456,1.456,0,0,0,.225-.309,4.39,4.39,0,0,1,.449-.589q.954-.505,1.628-.871c.449-.243.843-.439,1.179-.589q.955-.561,2.443-1.46a26.8,26.8,0,0,0,2.892-2.022,15.294,15.294,0,0,0,2.414-2.387,4.136,4.136,0,0,0,1.011-2.611,2.413,2.413,0,0,0-.056-.392.314.314,0,0,0-.337-.282,9.113,9.113,0,0,1-1.011.169,9,9,0,0,1-1.01.056q-.675,0-1.264-.056a10.917,10.917,0,0,1-1.151-.169,1.918,1.918,0,0,1-.758-.224,6.2,6.2,0,0,1-.955-.561q-.477-.336-.926-.7a4.435,4.435,0,0,1-.674-.646A4.818,4.818,0,0,1,278.826,5.9a5.773,5.773,0,0,1,1.628-4.268A5.849,5.849,0,0,1,284.778,0a7.466,7.466,0,0,1,3.481.814,8.51,8.51,0,0,1,2.667,2.134,9.512,9.512,0,0,1,1.685,3.06A11.126,11.126,0,0,1,293.2,9.6a12.639,12.639,0,0,1-1.376,5.98,12.354,12.354,0,0,1-3.959,4.408q-.9.618-1.881,1.263a12.315,12.315,0,0,1-2.274,1.152,21.7,21.7,0,0,1-2.976,1.01,11.112,11.112,0,0,1-2.7.337,4.013,4.013,0,0,1-.842-.084,3.768,3.768,0,0,1-1.179-.646" fill="#282929"/>
    <path id="パス_1976" data-name="パス 1976" d="M304.473,78.164l.955-37.679a4.886,4.886,0,0,0-.2-1.233,7.637,7.637,0,0,0-.533-1.4,4.826,4.826,0,0,0-.787-1.152,1.274,1.274,0,0,0-.9-.477,7.878,7.878,0,0,0-1.937.224,15.611,15.611,0,0,0-1.544.479c-.45.169-.842.318-1.18.448a2.308,2.308,0,0,1-.785.2.693.693,0,0,1-.787-.784,1.655,1.655,0,0,1,.477-.955,4.533,4.533,0,0,1,.984-.787,10.435,10.435,0,0,1,1.123-.589c.373-.168.654-.29.841-.364q1.91-.508,3.482-1.039t3.032-1.152q1.459-.618,2.92-1.376t3.2-1.713a3.777,3.777,0,0,1,1.348-.281q.674,0,.674.619a11.919,11.919,0,0,1-.114,1.4q-.112.9-.224,1.851t-.225,1.827a11.105,11.105,0,0,0-.111,1.319v1.066a8.217,8.217,0,0,0,.2,1.826c.131.582.327.871.589.871q.618,0,.927-.787a7.1,7.1,0,0,1,1.208-1.854,25.192,25.192,0,0,1,3.7-3.62,29.37,29.37,0,0,1,4.549-3.005,27.33,27.33,0,0,1,5.025-2.077,17.559,17.559,0,0,1,5.082-.787,19.172,19.172,0,0,1,2.106.14,8.169,8.169,0,0,1,2.554.786,11.835,11.835,0,0,1,2.752,1.91,14.564,14.564,0,0,1,2.7,3.453q.224.506.365.927c.093.28.177.571.252.87s.169.656.281,1.067.262.954.449,1.628q.393,1.179.786,1.179.561,0,.843-1.179a7.21,7.21,0,0,1,1.291-2.667q.9-1.15,1.235-1.488a25.6,25.6,0,0,1,6.655-5.334,16.864,16.864,0,0,1,8.339-2.077,9.973,9.973,0,0,1,4.463.981,12.015,12.015,0,0,1,3.509,2.611,15.988,15.988,0,0,1,2.584,3.762,27.2,27.2,0,0,1,1.74,4.409,30.188,30.188,0,0,1,.983,4.575A32.429,32.429,0,0,1,379.661,47V67.1a42.092,42.092,0,0,1-.281,4.914,37.138,37.138,0,0,0-.28,4.295,1.864,1.864,0,0,0,1.908,2.078h6.346a.656.656,0,0,1,.674.449c.037.263.074.487.112.674a2.638,2.638,0,0,1,.056.5,5.631,5.631,0,0,1-.056.787c-.038.261-.075.486-.112.673-.076.262-.488.413-1.236.45s-1.535.055-2.358.055H379.1q-2.865,0-4.914.084t-3.65.2q-1.6.114-2.976.2t-2.779.084h-2.246q-1.743,0-1.742-1.572a1.9,1.9,0,0,1,.2-.955,1.964,1.964,0,0,1,.476-.561,2.969,2.969,0,0,1,.815-.253c.429-.093.9-.178,1.4-.253s.982-.14,1.432-.2a8.7,8.7,0,0,1,.955-.085,1.506,1.506,0,0,1,.56-.111H368.2q.956,0,.956-1.068V44.866a22.389,22.389,0,0,0-.393-4.266,11.486,11.486,0,0,0-1.264-3.539,6.438,6.438,0,0,0-2.358-2.387,7.183,7.183,0,0,0-3.679-.87,16.978,16.978,0,0,0-5.867.955,12.75,12.75,0,0,0-4.408,2.638,11.774,11.774,0,0,0-2.78,3.959,12.393,12.393,0,0,0-.982,4.969V77.21a1.434,1.434,0,0,0,.393,1.066,3.133,3.133,0,0,0,.955.646,4.939,4.939,0,0,0,1.207.365c.429.075.8.132,1.094.169.524.037.955.075,1.292.111a8.524,8.524,0,0,0,.955.057h.729a1.531,1.531,0,0,1,.563.112.924.924,0,0,1,.588.562,3.217,3.217,0,0,1,.085.786,1.05,1.05,0,0,1-.449.927,3.069,3.069,0,0,1-1.1.449,7.974,7.974,0,0,1-1.347.168c-.469.018-.87.028-1.207.028-.038,0-.309-.01-.815-.028s-1.188-.027-2.049-.027-1.853-.01-2.976-.029-2.321-.028-3.594-.028q-1.291,0-2.807.028T336,82.628q-1.431.027-2.611.057c-.785.018-1.366.027-1.74.027a6.965,6.965,0,0,1-1.965-.28,1.335,1.335,0,0,1-.955-1.46q0-1.4,1.8-1.516a3.471,3.471,0,0,1,.841-.113h.956a14.266,14.266,0,0,0,1.515-.084,8.3,8.3,0,0,0,1.461-.281,2.857,2.857,0,0,0,1.1-.561,1.174,1.174,0,0,0,.421-.927l.674-33.916a8.3,8.3,0,0,0-.393-2.525,11.488,11.488,0,0,0-1.292-2.64,11.282,11.282,0,0,0-1.993-2.3,9.985,9.985,0,0,0-2.555-1.628,7.309,7.309,0,0,0-2.976-.618,13.091,13.091,0,0,0-3.875.59,13.393,13.393,0,0,0-3.538,1.684,15.554,15.554,0,0,0-2.948,2.583,12.139,12.139,0,0,0-2.1,3.341q-.338,1.01-.646,2.049a7.755,7.755,0,0,0-.308,2.218l-.787,31a5.766,5.766,0,0,0,.224,1.686.925.925,0,0,0,.955.729h6.626c.337,0,.533.113.59.337a3.023,3.023,0,0,1,.084.731,2.706,2.706,0,0,1-.337,1.262,1.265,1.265,0,0,1-1.235.646q-2.472,0-4.886-.027l-4.548-.057q-2.135-.03-3.79-.056t-2.5-.028q-1.459,0-3.228.084t-3.9.084h-1.515a.771.771,0,0,1-.646-.336,1.271,1.271,0,0,1-.253-.787,1.53,1.53,0,0,1,.309-.926A1.447,1.447,0,0,1,297,80.13a7.356,7.356,0,0,1,1.629-.253q.786-.028,1.629-.028h2.077a3.144,3.144,0,0,0,1.517-.337,1.4,1.4,0,0,0,.617-1.348" fill="#282929"/>
    <path id="パス_1977" data-name="パス 1977" d="M423.938,76.986V14.039a33.8,33.8,0,0,0-.2-3.622,23.436,23.436,0,0,0-.59-3.341A2.553,2.553,0,0,0,421.8,5.56a8.287,8.287,0,0,0-2.33-.73,21.622,21.622,0,0,0-2.752-.282,26.1,26.1,0,0,1-2.638-.224,7.04,7.04,0,0,1-1.994-.533,1.243,1.243,0,0,1-.787-1.207,1.662,1.662,0,0,1,.253-.786.972.972,0,0,1,.927-.45H414.5q2.527,0,4.325.084T422.2,1.6q1.57.084,3.144.141t3.65.056q1.458,0,2.807-.056t2.724-.085q1.375-.028,2.835-.084t3.2-.056h3.65a4.8,4.8,0,0,1,1.1.112q.477.114.478.842a1.34,1.34,0,0,1-.787,1.292,5.936,5.936,0,0,1-1.937.534q-1.15.139-2.527.224A16.415,16.415,0,0,0,438,4.858a4.943,4.943,0,0,0-1.937.842,2.067,2.067,0,0,0-.786,1.768V41.553a2.473,2.473,0,0,0,1.067-.308,6.7,6.7,0,0,0,1.235-.815,13.509,13.509,0,0,0,1.208-1.123,12.209,12.209,0,0,0,1.038-1.235q.786-1.122,1.4-2.05t1.207-1.74c.394-.542.767-1.067,1.124-1.572s.738-1.02,1.15-1.544q3.426-4.551,6.823-8.7t7.047-8.48a16.18,16.18,0,0,0,1.825-2.947,7.228,7.228,0,0,0,.7-3.117,2.8,2.8,0,0,0-.786-1.769,3.633,3.633,0,0,0-1.8-1.207,9.826,9.826,0,0,0-1.6-.365q-.926-.139-1.936-.253c-.674-.074-1.34-.158-1.994-.252a8.88,8.88,0,0,1-1.769-.422,1.089,1.089,0,0,1-.674-.449,1.38,1.38,0,0,1-.224-.785.565.565,0,0,1,.084-.338c.056-.074.121-.168.2-.28a1.38,1.38,0,0,1,.534-.169c.243-.037.495-.065.758-.084s.505-.028.729-.028h.45q2.076,0,3.734.084c1.1.056,2.163.132,3.173.225s1.983.168,2.921.224,1.926.084,2.974.084a47.284,47.284,0,0,0,5.391-.308,41.278,41.278,0,0,1,4.549-.309h4.043A3.748,3.748,0,0,1,482,2.022q.5.282.5.562c0,.112-.075.206-.224.281a46.245,46.245,0,0,1-4.632,1.572,42.075,42.075,0,0,0-4.689,1.628,11.856,11.856,0,0,0-1.432.73q-.758.45-1.544.983t-1.46,1.066a13.942,13.942,0,0,0-1.179,1.039q-1.909,1.854-3.144,3.033t-2.107,2.078q-.872.9-1.572,1.628t-1.543,1.628q-1.348,1.516-2.612,2.948t-2.583,2.948q-1.32,1.516-2.724,3.173t-3.031,3.565q-.789.787-1.433,1.489a2.3,2.3,0,0,0-.645,1.6,2.859,2.859,0,0,0,.59,1.039q.588.814,1.488,1.966t1.993,2.471q1.094,1.32,2.105,2.555t1.826,2.246q.813,1.011,1.15,1.46,3.088,3.369,5.84,6.822t5.84,7.16q.9,1.066,2.415,2.807t3.313,3.791q1.8,2.05,3.79,4.127t3.874,3.9a44.018,44.018,0,0,0,3.538,3.117,10.517,10.517,0,0,0,2.78,1.684,11.028,11.028,0,0,0,2.105.646q1.543.366,3.174.815t2.891.926q1.263.477,1.263.926a.7.7,0,0,1-.337.618,3.015,3.015,0,0,1-.814.365,4.7,4.7,0,0,1-1.066.169c-.394.018-.758.027-1.1.027H491.32a18.812,18.812,0,0,1-2.106-.111c-.655-.077-1.319-.169-1.994-.282s-1.413-.206-2.218-.281-1.711-.111-2.723-.111H471.5a1.752,1.752,0,0,1-1.067-.449q-2.247-2.866-4.549-5.532t-4.716-5.39q-2.415-2.724-4.885-5.56t-5.054-5.979q-2.976-3.707-4.941-6.178t-3.566-4.323q-1.6-1.854-3.117-3.369t-3.537-3.257c-.075-.037-.15-.074-.225-.113a.791.791,0,0,0-.337-.055c-.15,0-.224.131-.224.392V75.525A3,3,0,0,0,436.487,78a9,9,0,0,0,2.864,1.488,17.484,17.484,0,0,0,3.313.731,23.259,23.259,0,0,0,2.554.2,1.875,1.875,0,0,1,1.237.337,1.069,1.069,0,0,1,.392.842,1.035,1.035,0,0,1-.786,1.151,7.989,7.989,0,0,1-1.909.2q-2.527,0-4.436-.084t-3.509-.2q-1.6-.112-3.144-.2t-3.286-.084q-2.022,0-4.211.027l-4.268.057-3.959.055q-1.882.03-3.341.029-1.629,0-1.628-1.236a5.554,5.554,0,0,1,.084-.9.616.616,0,0,1,.589-.562q.9-.111,1.966-.168t2.022-.056h1.234a23.563,23.563,0,0,0,2.5-.141,6.244,6.244,0,0,0,2.107-.533,2.105,2.105,0,0,0,1.067-1.965" fill="#282929"/>
    <path id="パス_1978" data-name="パス 1978" d="M520.393,74.458l-.28.225a8.009,8.009,0,0,0-.927.815q-.871.814-1.938,1.8t-2.021,1.825a5.228,5.228,0,0,1-1.179.9,33.037,33.037,0,0,1-4.071,1.91,13.888,13.888,0,0,1-5.138.9,14.758,14.758,0,0,1-4.015-.563,9.3,9.3,0,0,1-3.593-1.936,9.81,9.81,0,0,1-2.583-3.679,14.944,14.944,0,0,1-.984-5.84,11.138,11.138,0,0,1,.647-3.284,9.61,9.61,0,0,1,2.162-3.622,16.744,16.744,0,0,1,3.453-3.116,25.686,25.686,0,0,1,4.155-2.246,41.227,41.227,0,0,1,5.026-1.769q2.751-.786,6.12-1.629.786-.168,1.685-.392t1.712-.45q.813-.223,1.4-.422a2.118,2.118,0,0,0,.757-.365c.187-.148.366-.28.534-.392a1.033,1.033,0,0,0,.309-.787q.223-1.29.421-2.751t.337-2.919q.139-1.461.2-2.809t.056-2.414a10.041,10.041,0,0,0-.842-4.1,10.553,10.553,0,0,0-2.274-3.312,10.365,10.365,0,0,0-3.341-2.19,10.523,10.523,0,0,0-4.043-.787,8.617,8.617,0,0,0-3.51.815,12.447,12.447,0,0,0-3.312,2.162,11.975,11.975,0,0,0-2.444,3.06,7.135,7.135,0,0,0-.954,3.51,1.96,1.96,0,0,0,.449,1.348,11.762,11.762,0,0,0,.954.954,8.239,8.239,0,0,1,.956,1.011,2.367,2.367,0,0,1,.449,1.515,4.55,4.55,0,0,1-1.46,3.594,5.228,5.228,0,0,1-3.594,1.292,4.684,4.684,0,0,1-2.274-.533,5.921,5.921,0,0,1-2.808-3.4,7.373,7.373,0,0,1-.364-2.3,5.623,5.623,0,0,1,.617-2.414,16.1,16.1,0,0,1,1.516-2.528,29.468,29.468,0,0,1,1.881-2.33q.982-1.094,1.657-1.768,1.234-1.181,2.386-2.078t2.443-1.8a10.767,10.767,0,0,1,1.965-1.012q1.01-.391,1.965-.674c.374-.148.889-.327,1.544-.533s1.385-.4,2.191-.59,1.646-.345,2.526-.477a17.347,17.347,0,0,1,2.555-.2,18.805,18.805,0,0,1,5.194.731,13.066,13.066,0,0,1,4.549,2.3,11.776,11.776,0,0,1,3.229,4.043,13.063,13.063,0,0,1,1.235,5.9q0,3.819-.393,7.805t-.871,7.637q-.477,3.651-.87,6.682a39.635,39.635,0,0,0-.393,4.885,20.907,20.907,0,0,0,.169,2.386,12.262,12.262,0,0,0,.645,2.752,6.95,6.95,0,0,0,1.32,2.274,2.78,2.78,0,0,0,2.19.955,6.685,6.685,0,0,0,3.032-.731,11.859,11.859,0,0,0,2.7-1.852,16.3,16.3,0,0,0,2.218-2.471,16.844,16.844,0,0,0,1.6-2.64c.074-.148.159-.308.253-.476a.45.45,0,0,1,.421-.253c.149,0,.224.132.224.393v.561a14.183,14.183,0,0,1-.927,4.97,14.754,14.754,0,0,1-2.7,4.549,13.824,13.824,0,0,1-4.352,3.34,13.126,13.126,0,0,1-5.952,1.291,13.839,13.839,0,0,1-1.431-.084,5.863,5.863,0,0,1-1.544-.365,10.457,10.457,0,0,1-2.415-1.6,12.477,12.477,0,0,1-1.657-1.826,17.282,17.282,0,0,1-1.292-2.049q-.588-1.1-1.263-2.331m-17.8-2.021a4.728,4.728,0,0,0,2.05,4.071,6.509,6.509,0,0,0,2.1.954,9.275,9.275,0,0,0,2.359.309,12.917,12.917,0,0,0,2.836-.309,16.1,16.1,0,0,0,2.61-.814,19.554,19.554,0,0,0,2.274-1.1q1.039-.588,1.882-1.151a3.45,3.45,0,0,0,1.4-2.527,54.439,54.439,0,0,1,.533-7.833,50.316,50.316,0,0,0,.534-7.215,4.534,4.534,0,0,0-.085-.843.492.492,0,0,0-.533-.449,3.523,3.523,0,0,0-.983.14c-.318.094-.609.179-.87.253q-2.472.9-4.83,1.966t-4.66,2.189a10.046,10.046,0,0,0-2.808,2.247,14.363,14.363,0,0,0-2.077,3.087,16.79,16.79,0,0,0-1.292,3.51,14.655,14.655,0,0,0-.449,3.51" fill="#282929"/>
    <path id="パス_1979" data-name="パス 1979" d="M545.143,98.66a4.78,4.78,0,0,1,1.264-3.453,4.477,4.477,0,0,1,3.4-1.319,3.759,3.759,0,0,1,1.8.449,11.466,11.466,0,0,1,1.544.982,14.7,14.7,0,0,1,1.179.984c.317.3.533.449.646.449a4.188,4.188,0,0,0,2.863-1.237,12.183,12.183,0,0,0,2.331-2.947,18.654,18.654,0,0,0,1.572-3.538,10.33,10.33,0,0,0,.59-3.059,34.228,34.228,0,0,0-.787-7.161q-.786-3.676-1.741-7.046-2.524-9.435-4.772-18.784t-4.661-18.839a2.892,2.892,0,0,0-.14-.645c-.094-.317-.2-.654-.31-1.011a5.118,5.118,0,0,0-.42-.983,1.362,1.362,0,0,0-.478-.561,4.685,4.685,0,0,0-1.487-.365q-.872-.086-1.993-.084t-2.107-.085q-.982-.084-1.881-.2a1.13,1.13,0,0,1-.954-1.291.927.927,0,0,1,.561-.927,2.831,2.831,0,0,1,1.179-.253q1.236,0,2.949.057t3.453.084q1.74.028,3.313.084t2.582.056q2.977,0,5.953-.169t5.616-.169c.148,0,.421.01.813.029a2.9,2.9,0,0,1,.87.14,1,1,0,0,1,.394.394,1.289,1.289,0,0,1,.169.674c0,.187-.179.384-.534.589a2.164,2.164,0,0,1-1.1.309q-.618,0-1.46-.056t-1.292-.057q-.618,0-1.291.057t-1.291.112a3.419,3.419,0,0,0-1.488.5,1.377,1.377,0,0,0-.59,1.236,9.259,9.259,0,0,0,.281,2.218q.279,1.15.645,2.3t.758,2.218q.393,1.066.674,2.022,1.91,7.3,3.931,14.514t4.211,15.527a1.814,1.814,0,0,0,1.347-.674q.507-.9.927-1.853a11.484,11.484,0,0,0,.646-1.853q2.358-6.681,5.11-13.364t5.671-13.533a12.362,12.362,0,0,0,1.236-5.278q0-.618-.056-1.264a3.481,3.481,0,0,0-.309-1.179,2.127,2.127,0,0,0-.758-.87,2.633,2.633,0,0,0-1.461-.337h-1.74q-.618,0-1.319-.029t-1.376-.055c-.45-.019-.834-.037-1.152-.057a2.883,2.883,0,0,1-.645-.084c-.188-.112-.281-.374-.281-.786a1.381,1.381,0,0,1,.281-.87,1.4,1.4,0,0,1,.9-.478,2.87,2.87,0,0,1,.955-.112h1.067q1.684,0,3.088.084t2.723.225q1.319.14,2.583.224t2.668.084q2.414,0,5.25-.252t4.969-.253c.149,0,.365.01.646.029a5.633,5.633,0,0,1,.815.112,2.205,2.205,0,0,1,.674.253.551.551,0,0,1,.28.5.921.921,0,0,1-.533.814,4,4,0,0,1-1.236.449,11.844,11.844,0,0,1-1.431.2c-.487.038-.843.056-1.068.056-.6.076-1.226.168-1.88.281a11.708,11.708,0,0,0-1.938.5,7.45,7.45,0,0,0-1.8.926,5.08,5.08,0,0,0-1.4,1.489q-.62.9-1.348,2.077t-1.488,2.5q-.759,1.32-1.46,2.639t-1.208,2.443q-2.808,6.064-5.615,12.353t-5.783,12.41q-1.406,2.978-2.667,5.7t-2.471,5.39q-1.209,2.669-2.415,5.391t-2.555,5.644a15.066,15.066,0,0,1-.842,1.8q-.673,1.292-1.488,2.723T560.445,97.2a17.507,17.507,0,0,1-1.039,1.572q-.843,1.234-1.741,2.386a12.049,12.049,0,0,1-1.994,2.022,8.913,8.913,0,0,1-2.442,1.375,8.585,8.585,0,0,1-3.032.506,3.624,3.624,0,0,1-2.05-.618,6.113,6.113,0,0,1-1.6-1.572,7.726,7.726,0,0,1-1.038-2.077,6.9,6.9,0,0,1-.365-2.135" fill="#282929"/>
    <path id="パス_1980" data-name="パス 1980" d="M619.685,56.322a1.216,1.216,0,0,1-.842-.506,1.718,1.718,0,0,1-.449-1.18,1.489,1.489,0,0,1,.449-1.038,1.236,1.236,0,0,1,.842-.477q16.227,0,32.035.028t31.923.14q1.908,0,3.763.028t3.761.028q6.234,0,12.045-.056t12.045-.168a1.6,1.6,0,0,1,.842.506,1.319,1.319,0,0,1,0,2.161q-.562.534-.842.534-9.941,0-19.316.056t-19.261.055q-12.354,0-25.381-.168-2.526-.055-5.025-.056h-5.027q-5.166,0-9.966.028t-9.91.085Z" fill="#282929"/>
  </g>
</svg>
